<svg width="35" height="35" viewBox="0 0 35 35" fill="none" xmlns="http://www.w3.org/2000/svg">
<path d="M5.83325 10.2083H29.1666" stroke="#F7F7F7" stroke-width="2.75" stroke-linecap="round" stroke-linejoin="round"/>
<path d="M14.5833 16.0417V24.7917" stroke="#F7F7F7" stroke-width="2.75" stroke-linecap="round" stroke-linejoin="round"/>
<path d="M20.4167 16.0417V24.7917" stroke="#F7F7F7" stroke-width="2.75" stroke-linecap="round" stroke-linejoin="round"/>
<path d="M7.29175 10.2083L8.75008 27.7083C8.75008 28.4819 9.05737 29.2237 9.60435 29.7707C10.1513 30.3177 10.8932 30.625 11.6667 30.625H23.3334C24.107 30.625 24.8488 30.3177 25.3958 29.7707C25.9428 29.2237 26.2501 28.4819 26.2501 27.7083L27.7084 10.2083" stroke="#F7F7F7" stroke-width="2.75" stroke-linecap="round" stroke-linejoin="round"/>
<path d="M13.125 10.2083V5.83333C13.125 5.44656 13.2786 5.07563 13.5521 4.80214C13.8256 4.52865 14.1966 4.375 14.5833 4.375H20.4167C20.8034 4.375 21.1744 4.52865 21.4479 4.80214C21.7214 5.07563 21.875 5.44656 21.875 5.83333V10.2083" stroke="#F7F7F7" stroke-width="2.75" stroke-linecap="round" stroke-linejoin="round"/>
</svg>
